<svg width="420" height="300" viewBox="0 0 420 300" fill="none" xmlns="http://www.w3.org/2000/svg" role="img" aria-labelledby="title desc">
  <title id="title">Ecophant Auto Ceramic Pro East Boca Raton Elite Dealer</title>
  <desc id="desc">Green elephant logo with Ceramic Pro East Boca Raton Elite Dealer text.</desc>
  <defs>
    <linearGradient id="greenMark" x1="80" y1="44" x2="159" y2="144" gradientUnits="userSpaceOnUse">
      <stop stop-color="#9AD14B"/>
      <stop offset="0.48" stop-color="#6FBF3B"/>
      <stop offset="1" stop-color="#087B3B"/>
    </linearGradient>
    <linearGradient id="greenText" x1="182" y1="48" x2="336" y2="129" gradientUnits="userSpaceOnUse">
      <stop stop-color="#0B6F38"/>
      <stop offset="0.45" stop-color="#9AD14B"/>
      <stop offset="1" stop-color="#0D5B35"/>
    </linearGradient>
    <linearGradient id="whiteChrome" x1="30" y1="154" x2="324" y2="214" gradientUnits="userSpaceOnUse">
      <stop stop-color="#FFFFFF"/>
      <stop offset="0.48" stop-color="#E8E9ED"/>
      <stop offset="1" stop-color="#FFFFFF"/>
    </linearGradient>
  </defs>

  <g>
    <path d="M132.6 36.3C116.8 42.7 112.5 56.1 124 67.8C135.1 79.2 137.9 90.3 128.2 102.2C122.1 89.7 108.2 80.7 91.4 80.7C64.2 80.7 42.1 101.6 42.1 127.2C42.1 147.8 56.4 164.1 75.3 168.5C66.2 154.2 66.1 135.7 77.4 121.6C90.3 105.6 112.5 101 130.5 109.5C143.7 98.5 145.6 79.6 135.3 64.2C126.2 50.7 128.6 43.1 143.6 37.7C139.7 36.1 136.4 35.3 132.6 36.3Z" fill="url(#greenMark)"/>
    <path d="M78.5 121.5C67.5 135.5 70.2 155.6 84.4 166.8C99.6 178.8 122.1 174.7 133.1 158.9C144.8 142.1 138.9 119.1 120.7 110.2C105.3 102.6 88.9 108.3 78.5 121.5Z" fill="url(#greenMark)"/>
    <path d="M70.7 115.7C78.3 121 83.3 127.7 86 135.6C89.6 146 88.5 157.4 82.4 167.2" stroke="#04130B" stroke-width="3.2" stroke-linecap="round"/>
    <path d="M113.1 112.5C116.4 112.1 119.7 112.7 122.5 114.3" stroke="#04130B" stroke-width="3.2" stroke-linecap="round"/>
    <path d="M115.4 98.5C118.7 98.9 121.7 100.2 124.3 102.2" stroke="#04130B" stroke-width="3.2" stroke-linecap="round"/>
    <circle cx="100.4" cy="126.5" r="3.6" fill="#04130B"/>
  </g>

  <text x="177" y="79" fill="url(#greenText)" font-family="'Brush Script MT','Segoe Script',cursive" font-size="45" font-style="italic">Ecophant</text>
  <text x="232" y="124" fill="url(#greenText)" font-family="'Brush Script MT','Segoe Script',cursive" font-size="49" font-style="italic">Auto</text>
  <path d="M327 70L377 63" stroke="#9AD14B" stroke-width="3" stroke-linecap="round"/>
  <path d="M239 127L320 116" stroke="#0D5B35" stroke-width="3" stroke-linecap="round"/>

  <text x="27" y="198" fill="url(#whiteChrome)" font-family="Arial Black, Impact, sans-serif" font-size="55" font-weight="900" letter-spacing="-2">CERAMIC PRO</text>
  <text x="356" y="168" fill="#FFFFFF" font-family="Arial, sans-serif" font-size="18" font-weight="700">R</text>
  <circle cx="364" cy="161" r="10" stroke="#FFFFFF" stroke-width="2"/>
  <text x="27" y="236" fill="#FFFFFF" font-family="Arial Black, Impact, sans-serif" font-size="22" font-weight="900" letter-spacing="10">EAST BOCA RATON</text>
  <text x="113" y="276" fill="#EC008C" font-family="Arial Black, Impact, sans-serif" font-size="21" font-weight="900">//</text>
  <text x="151" y="276" fill="#FFFFFF" font-family="Arial Black, Impact, sans-serif" font-size="21" font-weight="900">ELITE DEALER</text>
</svg>
